<svg>
    <defs>
        <symbol width="24" height="24" viewBox="0 0 24 24" fill="currentColor"
            xmlns="http://www.w3.org/2000/svg" id="question">
            <path fill-rule="evenodd" clip-rule="evenodd" d="M12 3C7.02944 3 3 7.02944 3 12C3 16.9706 7.02944 21 12 21C16.9706 21 21 16.9706 21 12C21 7.02944 16.9706 3 12 3ZM1 12C1 5.92487 5.92487 1 12 1C18.0751 1 23 5.92487 23 12C23 18.0751 18.0751 23 12 23C5.92487 23 1 18.0751 1 12Z" fill="currentColor"/>
            <path fill-rule="evenodd" clip-rule="evenodd" d="M12.2582 8.02431C11.7927 7.94446 11.314 8.03194 10.9068 8.27126C10.4996 8.51057 10.1902 8.88628 10.0335 9.33184C9.85018 9.85282 9.27926 10.1266 8.75827 9.94333C8.23728 9.76005 7.96351 9.18914 8.14678 8.66815C8.46025 7.77704 9.07898 7.02562 9.89339 6.54699C10.7078 6.06836 11.6653 5.8934 12.5964 6.0531C13.5274 6.2128 14.3719 6.69685 14.9802 7.41952C15.5884 8.14204 15.9214 9.05647 15.9201 10.0009C15.9197 11.5313 14.7851 12.5419 13.9748 13.082C13.5392 13.3725 13.1107 13.586 12.795 13.7263C12.6358 13.7971 12.5016 13.8508 12.405 13.8876C12.3566 13.906 12.3174 13.9203 12.2888 13.9305L12.2541 13.9427L12.243 13.9464L12.2391 13.9477L12.2376 13.9483C12.2373 13.9484 12.2363 13.9487 11.9201 13L12.2363 13.9487C11.7124 14.1233 11.1461 13.8402 10.9714 13.3162C10.7969 12.7926 11.0796 12.2267 11.6028 12.0517L11.6016 12.0521C11.6017 12.0521 11.6018 12.052 11.6028 12.0517L11.6188 12.0461C11.6342 12.0406 11.6594 12.0314 11.693 12.0186C11.7605 11.9929 11.8607 11.9529 11.9827 11.8987C12.2296 11.789 12.551 11.6275 12.8654 11.4179C13.555 10.9582 13.9201 10.4691 13.9201 9.99999L13.9201 9.9985C13.9208 9.52618 13.7543 9.06886 13.4502 8.70752C13.146 8.34618 12.7238 8.10416 12.2582 8.02431Z" fill="currentColor"/>
            <path fill-rule="evenodd" clip-rule="evenodd" d="M12 15C12.5523 15 13 15.4477 13 16V16.5C13 17.0523 12.5523 17.5 12 17.5C11.4477 17.5 11 17.0523 11 16.5V16C11 15.4477 11.4477 15 12 15Z" fill="currentColor"/>
        </symbol>
        <symbol width="22" height="23" viewBox="0 0 22 23" fill="curentColor"
            xmlns="http://www.w3.org/2000/svg" id="success">
            <path fill-rule="evenodd" clip-rule="evenodd" d="M14.663 3.77342C12.8902 2.98352 10.9096 2.78783 9.01657 3.21555C7.12351 3.64326 5.41942 4.67145 4.15845 6.14678C2.89749 7.62211 2.14721 9.46552 2.01951 11.4021C1.89181 13.3387 2.39354 15.2646 3.44987 16.8928C4.50619 18.5209 6.06051 19.764 7.88102 20.4365C9.70153 21.1091 11.6907 21.1752 13.5518 20.6249C15.413 20.0746 17.0464 18.9375 18.2084 17.3831C19.3705 15.8286 19.9989 13.9402 20 11.9994V11.08C20 10.5277 20.4477 10.08 21 10.08C21.5523 10.08 22 10.5277 22 11.08V12C21.9986 14.3721 21.2306 16.6807 19.8103 18.5806C18.39 20.4804 16.3936 21.8703 14.1189 22.5428C11.8442 23.2154 9.41299 23.1346 7.18792 22.3126C4.96285 21.4906 3.06312 19.9713 1.77206 17.9813C0.480993 15.9914 -0.13223 13.6374 0.0238445 11.2705C0.179919 8.90358 1.09693 6.65052 2.63811 4.84734C4.17929 3.04416 6.26206 1.78748 8.57581 1.26472C10.8896 0.74196 13.3103 0.981129 15.477 1.94656C15.9815 2.17134 16.2082 2.76252 15.9834 3.26699C15.7587 3.77146 15.1675 3.9982 14.663 3.77342Z" fill="currentColor"/>
            <path fill-rule="evenodd" clip-rule="evenodd" d="M21.7068 3.29254C22.0975 3.68287 22.0978 4.31603 21.7075 4.70675L11.7075 14.7168C11.52 14.9044 11.2656 15.0099 11.0002 15.01C10.7349 15.0101 10.4805 14.9047 10.2929 14.7171L7.29289 11.7171C6.90237 11.3266 6.90237 10.6934 7.29289 10.3029C7.68342 9.91237 8.31658 9.91237 8.70711 10.3029L10.9996 12.5954L20.2925 3.29325C20.6829 2.90253 21.316 2.90221 21.7068 3.29254Z" fill="currentColor"/>
        </symbol>
        <symbol width="24" height="21" viewBox="0 0 24 21" fill="currentColor"
            xmlns="http://www.w3.org/2000/svg" id="error">
            <path fill-rule="evenodd" clip-rule="evenodd" d="M10.5282 1.28309C10.9775 1.03014 11.4844 0.897247 12 0.897247C12.5156 0.897247 13.0225 1.03014 13.4718 1.28309C13.9211 1.53604 14.2976 1.90052 14.565 2.34136L14.5679 2.34611L23.0379 16.4861L23.046 16.4999C23.308 16.9536 23.4466 17.4679 23.448 17.9917C23.4495 18.5155 23.3138 19.0306 23.0544 19.4857C22.795 19.9408 22.4209 20.3201 21.9694 20.5857C21.518 20.8514 21.0048 20.9942 20.481 20.9999L20.47 21.0001L3.51903 21C2.99522 20.9942 2.48206 20.8514 2.03059 20.5857C1.57912 20.3201 1.20507 19.9408 0.94567 19.4857C0.686267 19.0306 0.550547 18.5155 0.552014 17.9917C0.55348 17.4679 0.692083 16.9536 0.95403 16.4999L0.962153 16.4861L9.43215 2.34612L10.29 2.85998L9.43502 2.34136C9.70243 1.90052 10.0789 1.53604 10.5282 1.28309ZM11.1462 3.37663L2.68271 17.5058C2.59753 17.6556 2.55249 17.8249 2.55201 17.9973C2.55152 18.1719 2.59676 18.3436 2.68322 18.4953C2.76969 18.647 2.89438 18.7734 3.04487 18.862C3.19404 18.9498 3.36342 18.9973 3.53642 19H20.4636C20.6366 18.9973 20.806 18.9498 20.9552 18.862C21.1057 18.7734 21.2303 18.647 21.3168 18.4953C21.4033 18.3436 21.4485 18.1719 21.448 17.9973C21.4476 17.8249 21.4025 17.6557 21.3174 17.5059L12.855 3.37862C12.8546 3.37796 12.8542 3.37729 12.8538 3.37663C12.7648 3.23058 12.6397 3.1098 12.4906 3.02586C12.3409 2.94154 12.1719 2.89725 12 2.89725C11.8282 2.89725 11.6592 2.94154 11.5094 3.02586C11.3603 3.1098 11.2353 3.23058 11.1462 3.37663Z" fill="currentColor"/>
            <path fill-rule="evenodd" clip-rule="evenodd" d="M12 7C12.5523 7 13 7.44772 13 8V12C13 12.5523 12.5523 13 12 13C11.4477 13 11 12.5523 11 12V8C11 7.44772 11.4477 7 12 7Z" fill="currentColor"/>
            <path fill-rule="evenodd" clip-rule="evenodd" d="M12 14C12.5523 14 13 14.4477 13 15V15.5C13 16.0523 12.5523 16.5 12 16.5C11.4477 16.5 11 16.0523 11 15.5V15C11 14.4477 11.4477 14 12 14Z" fill="currentColor"/>
        </symbol>
        <symbol width="14" height="14" viewBox="0 0 14 14" fill="currentColor"
            xmlns="http://www.w3.org/2000/svg" id="close">
            <path fill-rule="evenodd" clip-rule="evenodd" d="M13.7071 0.292893C14.0976 0.683417 14.0976 1.31658 13.7071 1.70711L1.70711 13.7071C1.31658 14.0976 0.683417 14.0976 0.292893 13.7071C-0.0976311 13.3166 -0.0976311 12.6834 0.292893 12.2929L12.2929 0.292893C12.6834 -0.0976311 13.3166 -0.0976311 13.7071 0.292893Z" fill="currentColor"/>
            <path fill-rule="evenodd" clip-rule="evenodd" d="M0.292893 0.292893C0.683417 -0.0976311 1.31658 -0.0976311 1.70711 0.292893L13.7071 12.2929C14.0976 12.6834 14.0976 13.3166 13.7071 13.7071C13.3166 14.0976 12.6834 14.0976 12.2929 13.7071L0.292893 1.70711C-0.0976311 1.31658 -0.0976311 0.683417 0.292893 0.292893Z" fill="currentColor"/>
        </symbol>
        <symbol width="18" height="10" viewBox="0 0 18 10" fill="currentColor"
            xmlns="http://www.w3.org/2000/svg" id="arrow">
            <path fill-rule="evenodd" clip-rule="evenodd" d="M0.292893 0.292893C0.683417 -0.0976311 1.31658 -0.0976311 1.70711 0.292893L9 7.58579L16.2929 0.292893C16.6834 -0.0976311 17.3166 -0.0976311 17.7071 0.292893C18.0976 0.683417 18.0976 1.31658 17.7071 1.70711L9.70711 9.70711C9.31658 10.0976 8.68342 10.0976 8.29289 9.70711L0.292893 1.70711C-0.0976311 1.31658 -0.0976311 0.683417 0.292893 0.292893Z" fill="currentColor"/>
        </symbol>
        <symbol width="24" height="24" viewBox="0 0 24 24" fill="currentColor"
            xmlns="http://www.w3.org/2000/svg" id="check">
            <path fill-rule="evenodd" clip-rule="evenodd" d="M20.7071 5.29289C21.0976 5.68342 21.0976 6.31658 20.7071 6.70711L9.70711 17.7071C9.31658 18.0976 8.68342 18.0976 8.29289 17.7071L3.29289 12.7071C2.90237 12.3166 2.90237 11.6834 3.29289 11.2929C3.68342 10.9024 4.31658 10.9024 4.70711 11.2929L9 15.5858L19.2929 5.29289C19.6834 4.90237 20.3166 4.90237 20.7071 5.29289Z" fill="currentColor"/>
        </symbol>
    </defs>
</svg>
